<?xml version="1.0" encoding="iso-8859-1"?>
<!-- Generator: Adobe Illustrator 18.0.0, SVG Export Plug-In . SVG Version: 6.00 Build 0)  -->
<!DOCTYPE svg PUBLIC "-//W3C//DTD SVG 1.1//EN" "http://www.w3.org/Graphics/SVG/1.1/DTD/svg11.dtd">
<svg version="1.1" id="Capa_1" xmlns="http://www.w3.org/2000/svg" xmlns:xlink="http://www.w3.org/1999/xlink" x="0px" y="0px"
	 viewBox="0 0 117.715 117.715" style="enable-background:new 0 0 117.715 117.715;" xml:space="preserve">
<g>
	<path style="fill-rule:evenodd;clip-rule:evenodd;fill:#76DECB;" d="M117.715,29.428c0,32.507-26.352,58.858-58.857,58.858
		C26.352,88.287,0,61.935,0,29.428H117.715z"/>
	<path style="fill-rule:evenodd;clip-rule:evenodd;fill:#D9FFF8;" d="M113.024,29.428c0,29.916-24.251,54.167-54.167,54.167
		c-29.917,0-54.169-24.251-54.169-54.167h5.867l50.404,4.564l47.066-4.564H113.024z"/>
	<path style="fill-rule:evenodd;clip-rule:evenodd;fill:#FC5A29;" d="M108.026,29.428c0,27.155-22.014,49.169-49.169,49.169
		c-27.156,0-49.17-22.013-49.17-49.169H108.026z"/>
	<g>
		<path style="fill-rule:evenodd;clip-rule:evenodd;fill:#5C3F25;" d="M83.809,32.816c0.464-1.687,6.246-1.053,5.538,1.522
			C88.638,36.914,83.346,34.501,83.809,32.816z"/>
		<path style="fill-rule:evenodd;clip-rule:evenodd;fill:#5C3F25;" d="M81.608,48.979c1.252-1.22,5.917,2.256,4.003,4.118
			C83.695,54.959,80.355,50.197,81.608,48.979z"/>
		<path style="fill-rule:evenodd;clip-rule:evenodd;fill:#5C3F25;" d="M75.072,33.86c1.376-1.079,5.646,2.87,3.546,4.518
			C76.516,40.027,73.697,34.938,75.072,33.86z"/>
		<path style="fill-rule:evenodd;clip-rule:evenodd;fill:#5C3F25;" d="M88.607,39.789c1.309-1.158,5.805,2.532,3.805,4.302
			C90.41,45.86,87.298,40.946,88.607,39.789z"/>
		<path style="fill-rule:evenodd;clip-rule:evenodd;fill:#5C3F25;" d="M38.795,50.229c-1.706-0.376-3.845,5.033-1.237,5.607
			C40.166,56.413,40.503,50.605,38.795,50.229z"/>
		<path style="fill-rule:evenodd;clip-rule:evenodd;fill:#5C3F25;" d="M38.264,37.423c-1.454-0.968-5.403,3.303-3.179,4.782
			C37.309,43.684,39.72,38.39,38.264,37.423z"/>
		<path style="fill-rule:evenodd;clip-rule:evenodd;fill:#5C3F25;" d="M29.452,39.468c-1.17-1.299-6.054,1.863-4.265,3.846
			C26.976,45.298,30.623,40.766,29.452,39.468z"/>
		<path style="fill-rule:evenodd;clip-rule:evenodd;fill:#5C3F25;" d="M48.135,36.605c-1.701-0.397-3.909,4.983-1.309,5.593
			C49.427,42.806,49.838,37.004,48.135,36.605z"/>
		<path style="fill-rule:evenodd;clip-rule:evenodd;fill:#5C3F25;" d="M30.379,32.668c-0.552-1.658-6.292-0.719-5.448,1.814
			C25.774,37.016,30.932,34.325,30.379,32.668z"/>
		<path style="fill-rule:evenodd;clip-rule:evenodd;fill:#5C3F25;" d="M70.431,39.808c1.435-0.999,5.47,3.191,3.275,4.715
			C71.514,46.047,68.994,40.803,70.431,39.808z"/>
		<path style="fill-rule:evenodd;clip-rule:evenodd;fill:#5C3F25;" d="M58.745,45.917c1.744-0.113,3.037,5.56,0.372,5.732
			C56.451,51.821,57.002,46.03,58.745,45.917z"/>
		<path style="fill-rule:evenodd;clip-rule:evenodd;fill:#5C3F25;" d="M68.732,47.782c1.688-0.452,4.064,4.857,1.485,5.548
			C67.637,54.02,67.043,48.233,68.732,47.782z"/>
		<path style="fill-rule:evenodd;clip-rule:evenodd;fill:#5C3F25;" d="M50.929,49.515c1.714,0.345,1.487,6.156-1.131,5.631
			C47.18,54.62,49.215,49.17,50.929,49.515z"/>
		<path style="fill-rule:evenodd;clip-rule:evenodd;fill:#5C3F25;" d="M60.96,33.993c1.719-0.318,3.673,5.162,1.046,5.647
			C59.38,40.128,59.241,34.312,60.96,33.993z"/>
	</g>
</g>
<g>
</g>
<g>
</g>
<g>
</g>
<g>
</g>
<g>
</g>
<g>
</g>
<g>
</g>
<g>
</g>
<g>
</g>
<g>
</g>
<g>
</g>
<g>
</g>
<g>
</g>
<g>
</g>
<g>
</g>
</svg>
